HIERARCHY
ROOT Hips
{
	OFFSET 0.00000 0.00000 0.00000
	CHANNELS 6 Xposition Yposition Zposition Yrotation Zrotation Xrotation 
	JOINT Lumbar
	{
		OFFSET 0 0 0
		CHANNELS 3 Zrotation Xrotation Yrotation
		JOINT Neck
		{
			OFFSET 0.00 0.2701 0.00
			CHANNELS 3 Zrotation Xrotation Yrotation
			End Site
			{
				OFFSET 0.00 0.1379 0.00
			}
		}
		JOINT RightShoulder
		{
			OFFSET 0.0119 0.2289 0.1181
			CHANNELS 3 Zrotation Xrotation Yrotation
			JOINT RightElbow
			{
				OFFSET 0.00 -0.1475 0.00
				CHANNELS 2 Zrotation Yrotation
				JOINT RightWrist
				{
					OFFSET 0.00 -0.1605 0.00
					CHANNELS 2 Zrotation Xrotation
					End Site
					{
						OFFSET 0.0040 -0.1068 0.0006
					}
				}
			}
		}
		JOINT LeftShoulder
		{
			OFFSET 0.0119 0.2289 -0.1181
			CHANNELS 3 Zrotation Xrotation Yrotation
			JOINT LeftElbow
			{
				OFFSET 0.00 -0.1475 0.00
				CHANNELS 2 Zrotation Yrotation
				JOINT LeftWrist
				{
					OFFSET 0.00 -0.1605 0.00
					CHANNELS 2 Zrotation Xrotation
					End Site
					{
						OFFSET 0.0040 -0.1068 -0.0006
					}
				}
			}
		}
	}
	JOINT RightHip
	{
		OFFSET 0.0316 -0.0424 0.0458
		CHANNELS 3 Zrotation Xrotation Yrotation
		JOINT RightKnee
		{
			OFFSET 0.00 -0.2438 0.00
			CHANNELS 1 Zrotation
			JOINT RightAnkle
			{
				OFFSET 0.00 -0.2449 0.00
				CHANNELS 3 Zrotation Xrotation Yrotation
				End Site
				{
					OFFSET 0.1237 -0.0542 0.0051
				}
			}
		}
	}
	JOINT LeftHip
	{
		OFFSET 0.0316 -0.0424 -0.0458
		CHANNELS 3 Zrotation Xrotation Yrotation
		JOINT LeftKnee
		{
			OFFSET 0.00 -0.2438 0.00
			CHANNELS 1 Zrotation
			JOINT LeftAnkle
			{
				OFFSET 0.00 -0.2449 0.00
				CHANNELS 3 Zrotation Xrotation Yrotation
				End Site
				{
					OFFSET 0.1237 -0.0542 -0.0051
				}
			}
		}
	}
}
MOTION
Frames: 11
Frame Time: 0.02
-0.16392 0.00262 0.04346 -155.27761 -38.82122 -0.4639 48.22979 1.18628 -8.32631 7.71301 -1.42724 -0.83079 31.30896 -15.44471 24.57039 92.23122 94.9542 17.07393 -1.16071 42.93369 23.35736 -16.53371 77.69136 -93.71905 10.89808 0.40608 36.94819 0.6657 -2.84171 -15.92752 -6.51372 -2.34402 -1.8273 43.34063 1.65552 3.4017 -23.26481 -6.68252 2.70339 2.02431
-0.16374 0.00258 0.04354 -155.27112 -39.13065 -0.52428 48.33119 1.14431 -7.91722 7.52387 -0.66324 -0.83079 31.56901 -15.3321 21.1402 93.58121 94.04213 15.3669 -1.03044 38.87115 22.2101 -13.22994 82.54548 -92.72792 9.7453 0.23369 37.30935 0.76417 -2.3054 -15.94915 -6.51881 -2.38003 -1.84826 43.69766 1.75812 3.75626 -23.28079 -6.69817 2.61116 1.98707
-0.16355 0.00254 0.04365 -155.15702 -39.42917 -0.559 48.3969 1.12237 -7.53208 7.32266 -0.0556 -0.83079 31.32454 -15.427 17.48672 95.67829 92.10624 12.08217 -0.85795 34.98111 20.88343 -10.25715 86.8624 -90.73432 7.56913 0.03026 37.6427 0.86386 -1.64391 -15.95294 -6.52567 -2.44095 -1.88295 44.03698 1.85969 4.1792 -23.2892 -6.71938 2.49069 1.9385
-0.16337 0.00251 0.04375 -155.08524 -39.72829 -0.60479 48.47437 1.09092 -7.14308 7.12761 0.6124 -0.83079 31.29191 -15.44184 13.94879 97.40629 90.6256 9.53774 -0.71259 31.04469 19.65977 -7.16601 91.36576 -89.15867 5.84052 -0.15308 37.98281 0.95875 -1.07873 -15.96426 -6.53165 -2.48725 -1.90934 44.3804 1.95881 4.5526 -23.30104 -6.7373 2.38747 1.89666
-0.16318 0.00247 0.04386 -155.04121 -40.0477 -0.65319 48.57083 1.06198 -6.72564 6.93176 1.32594 -0.83079 31.33266 -15.39361 10.33737 99.27745 89.18693 6.89041 -0.53629 26.95153 18.33527 -3.93576 96.13463 -87.68769 4.16178 -0.36969 38.34956 1.07147 -0.34797 -15.97785 -6.53794 -2.54727 -1.94423 44.74266 2.07056 5.00495 -23.31306 -6.75843 2.26548 1.84805
-0.163 0.00243 0.04395 -154.91383 -40.32141 -0.68995 48.61933 1.03235 -6.37289 6.73438 1.90649 -0.83079 31.1018 -15.52809 6.83672 101.01426 87.42398 4.09126 -0.41277 23.24044 17.18519 -1.07842 100.20818 -85.78778 2.15211 -0.52206 38.65346 1.14774 0.07087 -15.98259 -6.54401 -2.58499 -1.96494 45.06054 2.15577 5.3095 -23.32285 -6.77427 2.17564 1.81078
-0.1628 0.00239 0.04404 -154.58264 -40.47318 -0.7016 48.54258 0.99482 -6.19 6.53019 2.16842 -0.83079 30.23194 -16.1042 3.63202 102.28226 84.9348 1.17436 -0.45222 20.46518 16.52171 0.86803 102.57155 -82.86286 -0.60524 -0.48129 38.79127 1.11823 -0.43951 -15.96673 -6.54921 -2.55138 -1.94046 45.26168 2.16654 5.18003 -23.32854 -6.77346 2.18494 1.80888
-0.16259 0.00235 0.04411 -154.17131 -40.57892 -0.70223 48.41913 0.95603 -6.0716 6.32563 2.29998 -0.83079 29.10819 -16.85895 0.56028 103.3748 82.16542 -1.82569 -0.54388 18.08532 16.04735 2.44333 104.23809 -79.55874 -3.64276 -0.37599 38.86652 1.05271 -1.26227 -15.94272 -6.55411 -2.49504 -1.90166 45.4183 2.1509 4.90133 -23.33222 -6.76728 2.22694 1.81856
-0.16239 0.00231 0.04419 -153.79667 -40.70426 -0.70747 48.31795 0.91834 -5.92553 6.12439 2.48461 -0.83079 28.10888 -17.54088 -2.52957 104.48662 79.58101 -4.73253 -0.60791 15.57645 15.51396 4.16399 106.16871 -76.49738 -6.49379 -0.30311 38.9696 1.00698 -1.91696 -15.92282 -6.55901 -2.45163 -1.87124 45.5939 2.14815 4.69613 -23.33666 -6.764 2.25182 1.82216
-0.16219 0.00227 0.04428 -153.41712 -40.83425 -0.71372 48.21079 0.87892 -5.77392 5.90911 2.69018 -0.83079 27.05434 -18.19715 -5.80838 105.86781 76.73168 -7.9278 -0.69036 12.85767 14.86396 5.97234 108.29828 -73.12273 -9.62852 -0.21454 39.07387 0.94741 -2.67433 -15.90053 -6.56451 -2.3985 -1.83364 45.77379 2.14139 4.46761 -23.34142 -6.75894 2.28545 1.82889
-0.162 0.00224 0.04433 -153.0302 -40.94444 -0.71531 48.10588 0.84282 -5.64818 5.72358 2.82283 -0.83079 26.06039 -18.94354 -8.65612 106.65175 74.3634 -10.52218 -0.74315 10.66995 14.49983 7.51317 109.86074 -70.29887 -12.22813 -0.14777 39.16169 0.90735 -3.2976 -15.88155 -6.56873 -2.35938 -1.80709 45.93493 2.13701 4.25354 -23.34519 -6.75631 2.30876 1.83189
